<?xml version="1.0" standalone="no"?>
<!DOCTYPE svg PUBLIC "-//W3C//DTD SVG 20010904//EN"
 "http://www.w3.org/TR/2001/REC-SVG-20010904/DTD/svg10.dtd">
<svg version="1.0" xmlns="http://www.w3.org/2000/svg"
 width="612.000000pt" height="612.000000pt" viewBox="0 0 612.000000 612.000000"
 preserveAspectRatio="xMidYMid meet">
<metadata>
Created by potrace 1.11, written by Peter Selinger 2001-2013
</metadata>
<g transform="translate(0.000000,612.000000) scale(0.100000,-0.100000)"
fill="#000000" stroke="none">
<path d="M2 5918 l3 -203 31 -3 31 -3 7 118 c4 65 9 137 12 159 6 42 4 47 -41
79 -19 14 -18 15 15 12 30 -2 35 1 38 21 3 20 0 22 -48 22 l-50 0 2 -202z"/>
<path d="M240 6110 c22 -14 5 -23 -20 -10 -12 6 -28 9 -36 6 -13 -5 -13 -10 1
-35 22 -44 19 -54 -15 -49 -25 4 -30 1 -30 -16 1 -70 74 -254 99 -248 6 1 11
-2 11 -8 0 -5 11 -10 24 -10 25 0 28 -6 62 -115 13 -44 19 -54 22 -37 2 13 -3
44 -12 70 -8 26 -18 59 -21 74 -4 19 -13 30 -30 34 -14 3 -30 15 -36 26 -6 11
-17 17 -25 14 -8 -3 -14 -1 -14 4 0 6 5 10 10 10 7 0 7 6 0 19 -16 32 -12 32
31 2 33 -22 51 -47 83 -112 39 -80 43 -84 80 -90 47 -8 57 -22 54 -76 -1 -23
1 -45 5 -49 4 -4 7 -20 7 -36 0 -31 24 -48 43 -29 6 6 19 11 29 11 14 0 18 8
18 35 0 19 -4 35 -10 35 -5 0 -10 4 -10 8 0 5 13 7 29 4 17 -2 39 3 54 13 19
12 31 14 44 6 18 -9 19 -20 15 -125 -3 -68 -1 -116 5 -116 12 0 14 -283 2
-290 -5 -4 -5 -20 1 -40 5 -19 6 -38 2 -42 -10 -10 -297 -42 -315 -35 -15 6
-14 11 21 132 5 19 21 37 44 50 27 14 38 28 43 52 6 34 1 53 -15 53 -5 0 -11
-8 -13 -17 -4 -14 -5 -13 -6 4 0 12 5 23 12 26 9 3 9 7 -1 19 -8 11 -25 14
-55 11 -143 -15 -246 -21 -345 -22 l-82 -1 0 -29 c0 -29 0 -29 40 -20 23 5 69
11 103 13 34 3 83 9 110 15 52 12 125 5 144 -15 17 -17 16 -24 -2 -24 -8 0
-15 -8 -15 -19 0 -10 -6 -24 -14 -30 -8 -7 -12 -23 -10 -40 6 -35 -12 -84 -29
-78 -6 2 -10 13 -8 23 3 18 2 18 -18 0 -19 -17 -19 -19 -3 -45 9 -14 23 -32
30 -40 7 -7 9 -18 5 -22 -8 -8 -101 -20 -266 -36 l-67 -6 0 -2065 0 -2064 23
7 c54 17 70 16 108 0 48 -22 48 -45 -1 -58 -45 -11 -47 -13 -25 -37 23 -25 42
-25 80 0 40 27 73 25 118 -6 45 -30 44 -46 -6 -57 -43 -10 -47 -24 -11 -37 36
-14 48 -13 70 8 21 21 56 17 111 -12 33 -16 59 -51 46 -59 -5 -2 -25 -7 -45
-11 -21 -4 -44 -16 -52 -27 -14 -20 -15 -20 -73 -4 -73 21 -84 21 -163 5 -79
-17 -89 -24 -67 -48 9 -10 17 -21 17 -25 0 -4 -24 -13 -52 -22 -82 -24 -79
-17 -76 -150 3 -109 5 -120 23 -125 33 -8 85 -43 85 -56 0 -7 -6 -15 -13 -17
-6 -3 61 -6 151 -6 138 -1 162 1 162 14 0 8 5 15 10 15 6 0 10 -7 10 -15 0
-12 13 -15 55 -15 59 0 74 14 26 25 -30 6 -39 22 -55 97 -8 34 -36 28 -60 -14
-16 -27 -22 -29 -53 -23 -45 8 -104 46 -101 64 2 8 19 19 38 24 19 5 41 13 47
19 7 6 43 11 80 13 54 1 81 8 130 34 33 17 64 38 67 46 3 8 23 19 45 25 22 6
49 22 59 35 18 23 23 24 49 14 17 -7 105 -13 223 -14 253 -3 343 -23 421 -92
36 -33 49 -77 49 -175 l0 -78 119 0 119 0 127 132 c69 73 138 153 152 178 92
161 194 300 303 415 26 28 51 61 55 75 14 46 65 139 93 172 31 35 47 111 30
141 -6 11 -3 19 8 25 14 8 14 13 -8 48 -14 21 -23 45 -21 52 3 8 -6 12 -26 12
-23 0 -34 6 -39 21 -4 11 -19 26 -32 33 -15 7 -24 19 -22 29 2 9 -7 27 -18 39
-40 43 -79 113 -107 193 -25 72 -27 94 -28 215 0 101 4 146 16 180 33 90 50
153 45 166 -3 8 -2 14 2 14 8 0 40 66 93 190 13 30 48 88 78 130 30 41 70 113
89 160 19 47 39 90 44 96 5 7 6 89 2 192 -7 171 -6 184 15 239 42 111 166 233
238 233 12 0 25 5 28 10 10 16 47 12 90 -10 49 -25 50 -25 62 2 7 17 24 26 64
34 l54 10 -67 1 c-58 0 -74 5 -115 32 -26 17 -64 54 -83 81 -19 28 -72 100
-118 161 -107 144 -132 193 -139 281 -5 51 -10 71 -22 75 -9 3 -26 17 -37 30
l-22 25 -27 -46 c-29 -50 -27 -68 6 -48 23 14 31 1 33 -52 1 -17 9 -39 19 -49
13 -13 17 -27 13 -43 -8 -28 0 -30 27 -6 20 16 20 16 12 -3 -4 -11 -11 -44
-15 -74 -8 -69 -22 -80 -207 -171 -79 -38 -148 -79 -155 -90 -22 -34 -28 -22
-28 54 0 93 14 113 120 165 l74 36 -3 62 c-1 34 -6 74 -11 90 -6 18 -7 3 -3
-44 3 -40 2 -73 -2 -73 -7 0 -57 37 -152 112 -23 18 -48 45 -55 59 -10 20 -20
26 -44 25 -26 -1 -30 2 -26 22 6 31 20 37 41 18 17 -16 19 -16 25 -1 14 37 -4
104 -21 80 -12 -15 -33 -17 -33 -2 0 7 6 19 13 26 10 11 8 13 -10 8 -17 -4
-23 -1 -23 12 0 9 -7 26 -15 37 -14 18 -15 16 -9 -21 4 -22 12 -43 18 -48 7
-5 5 -12 -7 -21 -13 -10 -17 -21 -12 -37 6 -18 4 -21 -10 -16 -9 4 -19 7 -21
7 -2 0 -4 6 -4 13 0 25 -37 50 -64 43 -14 -3 -28 -2 -31 4 -3 5 -22 10 -41 10
-19 0 -34 3 -35 8 0 4 -2 16 -4 27 -3 11 7 97 20 190 13 94 27 197 30 230 4
33 13 85 21 116 8 31 14 105 14 163 0 121 12 156 60 181 28 14 30 14 30 -2 1
-17 1 -17 10 -1 11 18 54 34 116 43 41 5 83 17 117 30 14 6 17 3 15 -15 -3
-19 4 -25 36 -34 l40 -11 -3 -70 c-4 -127 -10 -206 -16 -225 -7 -21 -49 -28
-60 -10 -6 9 10 115 22 146 3 8 0 14 -5 14 -16 0 -32 -66 -32 -130 l0 -55 44
0 44 0 11 110 c6 61 11 133 12 161 1 44 2 46 9 18 6 -28 1 -141 -14 -304 l-6
-55 15 40 14 40 -4 -73 c-5 -84 -17 -115 -25 -62 -4 23 -10 -10 -19 -100 -7
-74 -11 -144 -8 -155 2 -11 5 5 6 35 1 38 4 50 10 40 6 -8 7 -18 5 -22 -8 -13
6 -48 20 -48 20 0 94 -86 101 -119 4 -17 11 -31 16 -31 14 0 11 114 -5 151 -8
19 -16 50 -18 69 -3 30 0 35 17 32 29 -6 31 -13 38 -118 6 -90 18 -134 36
-134 4 0 11 48 14 108 4 59 11 133 17 165 6 31 10 79 8 105 l-3 47 -25 -40
-25 -40 -3 28 c-2 15 -7 27 -11 27 -10 0 -53 -49 -66 -75 -6 -11 -22 -21 -36
-23 -21 -3 -26 3 -35 37 -9 33 -8 47 6 79 13 28 17 67 18 154 0 65 3 122 7
128 3 5 15 10 26 10 16 0 18 5 13 28 -4 15 -11 35 -15 44 -17 33 -10 47 29 54
53 9 67 22 47 44 -14 15 -13 19 10 40 14 13 25 34 25 47 0 17 7 24 28 29 55
12 67 16 90 30 12 8 22 23 22 34 0 15 7 20 28 20 15 1 43 10 62 20 19 11 43
22 52 26 21 8 31 37 23 67 l-6 22 20 -24 c12 -13 21 -30 21 -39 0 -12 3 -13
12 -4 7 7 21 12 31 12 18 0 19 5 13 46 l-6 46 25 -16 c13 -9 34 -16 45 -16 12
0 25 -10 31 -22 8 -20 9 -18 5 10 -3 17 -3 32 1 32 10 0 32 -34 33 -50 0 -12
12 -16 50 -16 54 0 57 5 39 53 l-10 28 20 -22 c12 -12 21 -30 21 -40 0 -13 13
-22 45 -32 25 -7 45 -17 45 -23 0 -5 6 -8 13 -6 18 3 57 -12 57 -23 0 -12 -27
-12 -34 0 -7 10 -82 9 -92 -2 -4 -4 -30 -7 -58 -7 -64 0 -98 -9 -93 -24 3 -6
-42 -43 -99 -81 -94 -62 -120 -85 -95 -85 10 0 78 26 101 39 26 14 79 23 100
16 20 -6 20 -7 -5 -37 -31 -36 -28 -52 9 -56 19 -2 26 -8 22 -18 -3 -8 -9 -21
-12 -29 -7 -18 7 -19 75 -3 63 14 75 4 36 -29 l-30 -25 70 6 c51 5 77 2 97 -8
23 -12 27 -12 32 0 3 8 14 14 24 14 33 0 82 -21 82 -36 0 -8 7 -14 15 -14 8 0
15 7 15 15 0 8 5 15 11 15 6 0 8 -8 4 -19 -4 -14 11 -36 60 -85 48 -49 61 -68
50 -72 -8 -4 -15 -17 -15 -29 0 -15 -8 -26 -20 -30 -11 -3 -20 -13 -20 -21 0
-9 -7 -22 -15 -30 -11 -11 -13 -27 -9 -57 8 -51 17 -70 59 -122 27 -34 33 -51
38 -110 8 -87 27 -158 36 -133 3 10 24 27 46 39 37 20 39 20 52 3 7 -10 13
-42 13 -71 0 -66 -40 -144 -114 -221 l-51 -53 -4 -124 c-3 -107 -1 -125 12
-125 9 0 19 -10 23 -22 3 -12 13 -28 20 -36 8 -7 14 -22 14 -32 0 -16 4 -18
22 -11 17 6 36 -1 81 -28 42 -25 71 -35 96 -34 36 2 37 0 59 -57 60 -153 111
-225 263 -365 30 -28 74 -79 97 -113 27 -38 61 -72 88 -88 24 -14 44 -30 44
-36 0 -5 7 -16 15 -25 14 -14 15 -13 9 13 -4 16 -11 37 -15 46 -20 38 -11 45
49 44 51 -1 140 19 197 44 11 5 38 14 60 20 22 6 54 20 70 31 17 10 42 24 58
30 15 6 27 15 27 20 0 5 14 21 30 36 17 14 30 31 29 37 -4 31 1 39 16 26 8 -7
15 -20 15 -28 0 -14 2 -14 18 1 13 14 14 19 4 26 -7 4 -10 15 -6 25 6 14 2 16
-22 10 -16 -4 -38 -11 -49 -17 -11 -6 -22 -11 -25 -11 -3 -1 -4 -8 -3 -18 4
-26 -67 -95 -107 -103 -19 -4 -45 -17 -58 -29 -13 -11 -27 -20 -30 -18 -12 5
-97 -10 -108 -19 -20 -16 -131 -11 -179 10 -35 14 -95 69 -95 86 0 7 -34 47
-75 89 -41 42 -75 81 -75 86 0 6 -11 10 -25 10 -18 0 -26 7 -31 25 -3 14 -10
25 -15 25 -5 0 -9 9 -9 20 0 10 -9 24 -20 30 -11 6 -20 17 -20 26 0 8 -7 17
-16 21 -25 9 -120 219 -143 315 -11 47 -25 150 -30 229 -6 78 -13 144 -15 147
-3 2 1 21 9 41 23 61 26 98 9 112 -12 10 -16 9 -21 -9 -3 -12 -9 -22 -14 -22
-17 0 -24 56 -23 180 0 98 6 142 23 203 12 42 21 85 20 95 -1 9 2 25 6 35 5
12 2 32 -9 53 -16 34 -16 35 15 62 17 15 40 37 52 50 11 12 26 22 32 22 7 0
17 11 23 24 9 21 15 23 56 19 30 -4 46 -2 46 5 0 6 9 16 19 22 15 7 23 6 35
-6 22 -21 60 -9 53 17 -4 14 5 30 30 52 42 38 73 69 92 93 21 25 25 2 7 -40
-14 -34 -14 -36 4 -36 22 0 36 18 32 42 -2 9 2 19 8 23 5 3 10 -2 10 -11 0
-16 2 -16 21 2 30 27 55 8 52 -41 -2 -33 0 -37 17 -32 11 3 20 1 20 -4 0 -21
19 -7 34 25 16 35 34 59 94 125 l32 36 -6 -30 c-4 -16 -7 -34 -8 -40 0 -5 13
-11 29 -11 17 -1 32 -2 35 -3 3 -1 25 -4 50 -7 25 -2 69 -15 97 -29 29 -13 65
-27 80 -31 16 -4 40 -18 55 -32 20 -18 33 -23 52 -18 16 4 26 2 26 -4 0 -6 10
-8 23 -5 15 4 28 1 36 -9 9 -11 31 -16 70 -16 56 0 56 1 33 18 -13 10 -20 21
-16 24 7 8 54 -12 54 -23 0 -18 64 -101 86 -111 13 -6 24 -15 24 -20 0 -12
-10 -10 -26 6 -7 8 -22 12 -32 9 -16 -4 -47 19 -47 35 0 3 -28 6 -62 6 -57 1
-68 5 -64 29 0 4 -4 7 -9 7 -6 0 -10 -6 -10 -12 0 -7 -3 -23 -6 -35 -5 -17 -2
-23 10 -23 28 0 54 -22 49 -41 -4 -13 4 -23 29 -35 19 -9 40 -25 46 -35 10
-16 9 -19 -7 -19 -25 0 -37 -18 -17 -26 9 -3 16 -15 16 -25 0 -21 1 -24 55
-86 38 -44 40 -68 10 -93 -8 -7 -15 -21 -15 -30 0 -10 -6 -20 -12 -22 -15 -5
-22 -196 -8 -213 5 -5 10 -26 12 -45 3 -30 7 -35 28 -35 24 0 25 3 26 65 0 36
4 86 8 112 5 32 3 56 -7 75 -7 15 -12 36 -10 46 6 23 34 22 40 -3 3 -11 11
-20 17 -20 11 0 40 57 37 73 -1 4 4 7 11 5 7 -1 27 5 44 14 27 15 34 15 58 3
72 -38 91 -109 83 -305 -11 -227 -46 -314 -136 -335 l-43 -9 6 -41 c3 -22 10
-112 17 -200 l11 -160 41 -64 c50 -78 63 -91 88 -91 11 0 35 -11 54 -26 33
-25 36 -25 217 -26 100 0 200 3 221 7 l37 7 0 1225 0 1225 -157 -6 c-87 -4
-202 -11 -255 -16 -54 -6 -148 -13 -210 -16 -62 -3 -117 -8 -121 -11 -4 -3
-14 1 -22 7 -12 10 -15 44 -15 166 l0 154 -450 0 -450 0 -2 -32 c-2 -50 -3
-56 -10 -63 -3 -3 1 -20 10 -37 11 -24 13 -38 5 -58 -7 -20 -7 -38 2 -64 12
-33 11 -36 -6 -36 -10 0 -21 -4 -24 -10 -3 -5 0 -10 8 -10 26 0 40 -26 27 -51
-10 -17 -9 -20 1 -14 9 6 11 -1 6 -31 -3 -21 -2 -59 3 -84 6 -34 5 -50 -6 -67
-13 -20 -16 -21 -43 -7 -26 13 -28 18 -25 62 2 26 1 39 -2 30 -3 -10 -14 -18
-24 -18 -42 0 -47 19 -54 237 -4 114 -10 218 -13 231 -4 19 -12 22 -55 22
l-51 0 6 -54 c3 -30 3 -64 0 -75 -6 -24 -56 -43 -90 -35 -13 4 -34 2 -46 -4
-12 -6 -134 -16 -272 -22 -360 -16 -916 -48 -1160 -66 -115 -8 -239 -17 -275
-19 -36 -2 -140 -10 -232 -16 l-168 -13 -61 29 c-66 32 -89 62 -89 118 0 19
-3 62 -6 96 l-7 61 -193 0 -194 0 -1 -22 0 -23 -9 23 c-5 12 -12 22 -16 22 -9
0 4 -63 15 -70 11 -7 -5 -50 -19 -50 -5 0 -10 4 -10 9 0 5 -9 11 -20 14 -16 4
-20 14 -20 51 l0 46 -46 0 c-40 0 -45 -2 -34 -15 7 -9 10 -27 7 -44 -4 -16 -2
-31 2 -33 5 -2 11 -48 15 -103 6 -102 23 -337 31 -435 2 -30 4 -58 4 -62 1 -5
6 -8 11 -8 6 0 8 11 4 25 -5 20 0 31 19 48 24 20 25 24 12 47 -8 14 -14 42
-15 62 0 20 -5 49 -12 63 -10 23 -10 28 5 36 11 7 17 22 17 44 0 25 4 35 16
35 8 0 13 4 9 10 -3 5 -12 7 -19 4 -17 -7 -39 52 -27 74 5 8 6 23 4 32 -4 13
5 20 37 28 l41 10 -6 -40 c-5 -30 -3 -44 10 -58 11 -12 15 -28 12 -42 -4 -12
-1 -28 4 -34 7 -9 7 -19 1 -30 -6 -11 -6 -27 -2 -40 5 -13 8 -48 6 -78 -1 -31
1 -56 6 -56 11 0 10 -51 -2 -70 -5 -9 -5 -19 1 -27 6 -7 8 -17 4 -24 -4 -6 -2
-14 4 -18 8 -6 9 -15 2 -34 -7 -18 -7 -28 0 -33 5 -3 9 -15 7 -27 -3 -19 1
-22 25 -19 15 1 27 -2 27 -7 0 -13 -31 -30 -45 -25 -9 4 -22 -20 -39 -68 -3
-10 -12 -18 -21 -18 -9 0 -15 -9 -15 -21 0 -16 -4 -20 -17 -14 -13 4 -28 -6
-55 -37 -20 -24 -40 -40 -44 -36 -8 8 -29 351 -38 623 -3 94 -9 225 -12 293
l-6 122 -379 0 c-208 0 -379 -4 -379 -8 0 -16 32 -117 39 -125 4 -4 20 2 35
14 22 17 32 20 49 11 12 -6 28 -12 36 -14 21 -6 -39 -58 -66 -58 -27 0 -30
-27 -8 -70 13 -25 13 -29 -1 -34 -27 -10 -43 -7 -63 13 -10 10 -27 23 -37 29
-18 10 -17 11 9 21 34 13 34 30 2 65 -14 15 -25 33 -25 40 0 6 -12 35 -26 64
l-26 52 -71 0 c-48 0 -67 -3 -57 -10z m1287 -22 c-3 -8 -6 -5 -6 6 -1 11 2 17
5 13 3 -3 4 -12 1 -19z m-857 -63 c-12 -15 -40 -10 -40 7 0 6 8 17 18 24 14
10 18 10 25 -2 5 -9 4 -21 -3 -29z m163 -565 c3 -187 3 -232 -3 -140 -4 74
-10 272 -13 440 -4 219 -3 258 3 140 4 -91 10 -289 13 -440z m3664 568 c-3 -7
-5 -2 -5 12 0 14 2 19 5 13 2 -7 2 -19 0 -25z m-2954 -123 c3 -50 8 -99 10
-110 3 -11 8 -72 11 -135 6 -100 14 -196 19 -223 3 -12 -38 -27 -50 -19 -14 9
-18 51 -8 75 4 9 5 29 1 42 -16 64 -18 80 -8 66 7 -10 9 43 6 162 -2 97 -4
180 -5 184 -1 5 0 28 1 53 3 68 16 15 23 -95z m-170 81 c10 3 20 -2 27 -15 10
-19 8 -21 -23 -21 -24 0 -37 5 -41 18 -3 9 -9 24 -12 32 -5 11 -2 11 13 -3 11
-9 27 -15 36 -11z m3847 -152 c3 -54 1 -83 -5 -81 -5 2 -11 43 -12 91 -2 111
10 103 17 -10z m-3910 62 c0 -3 -4 -8 -10 -11 -5 -3 -10 -1 -10 4 0 6 5 11 10
11 6 0 10 -2 10 -4z m-820 -96 c0 -5 -2 -10 -4 -10 -3 0 -8 5 -11 10 -3 6 -1
10 4 10 6 0 11 -4 11 -10z m817 -12 c-3 -8 -6 -5 -6 6 -1 11 2 17 5 13 3 -3 4
-12 1 -19z m4 -61 c-8 -8 -11 -7 -11 4 0 20 13 34 18 19 3 -7 -1 -17 -7 -23z
m-791 -32 c0 -8 -7 -15 -15 -15 -16 0 -20 12 -8 23 11 12 23 8 23 -8z m4000
-20 c0 -8 -4 -15 -10 -15 -5 0 -10 7 -10 15 0 8 5 15 10 15 6 0 10 -7 10 -15z
m760 -26 c0 -11 -4 -18 -10 -14 -5 3 -7 12 -3 20 7 21 13 19 13 -6z m-1125
-98 c3 -5 19 -12 35 -16 37 -8 39 -33 4 -59 -22 -15 -28 -16 -35 -5 -5 8 -9
24 -9 36 0 12 -4 25 -10 28 -5 3 -10 10 -10 16 0 12 17 12 25 0z m-2825 -21
c0 -13 -5 -18 -15 -14 -8 4 -15 12 -15 20 0 8 7 14 15 14 8 0 15 -9 15 -20z
m2917 -12 c-3 -7 -5 -2 -5 12 0 14 2 19 5 13 2 -7 2 -19 0 -25z m117 16 c8
-21 9 -20 -18 -37 -23 -16 -24 -15 -22 7 5 43 28 61 40 30z m-484 -19 c15 -18
56 -20 63 -2 4 9 8 8 16 -3 14 -19 14 -50 1 -50 -5 0 -10 6 -10 13 0 6 -5 4
-11 -6 -6 -9 -14 -15 -19 -12 -5 3 -11 1 -15 -5 -3 -5 -15 -10 -26 -10 -13 0
-19 7 -19 23 0 12 -3 32 -6 45 -7 25 7 29 26 7z m196 -2 c13 -18 20 -72 7 -59
-9 9 -32 76 -25 76 2 0 11 -8 18 -17z m-504 -4 c14 -8 23 -8 31 0 8 8 14 3 23
-17 12 -25 12 -25 13 -4 1 29 15 28 29 -3 22 -47 7 -79 -17 -37 -10 16 -10 16
-11 0 0 -11 -8 -18 -19 -18 -24 0 -73 -39 -65 -51 4 -6 11 -6 20 2 11 9 14 7
14 -15 0 -29 -3 -31 -29 -14 -16 10 -18 20 -14 68 3 34 1 65 -6 78 -13 25 -2
29 31 11z m-366 -53 c4 -19 3 -27 -3 -23 -6 4 -13 20 -15 37 -6 37 8 27 18
-14z m94 27 c0 8 3 8 9 -2 7 -11 9 -11 14 0 7 18 37 -17 37 -43 0 -10 5 -18
10 -18 6 0 10 -4 10 -10 0 -18 -27 -10 -43 13 l-16 22 0 -22 c-1 -16 -6 -20
-22 -16 -12 4 -25 0 -30 -8 -13 -21 -26 0 -34 54 l-6 48 35 -15 c26 -11 36
-12 36 -3z m1104 -38 c-16 -21 -33 -45 -39 -56 -11 -22 -35 -26 -35 -6 0 7 18
33 40 57 22 24 40 49 40 54 0 6 5 5 12 -2 8 -8 4 -20 -18 -47z m-964 13 c-1
-28 -2 -30 -11 -15 -6 10 -8 25 -5 33 9 24 16 16 16 -18z m45 -35 l-7 -28 -13
35 c-21 55 -19 68 6 43 17 -16 20 -27 14 -50z m305 31 c0 -14 -4 -23 -10 -19
-5 3 -10 15 -10 26 0 10 5 19 10 19 6 0 10 -12 10 -26z m520 -3 c-10 -21 -30
-37 -30 -26 0 14 21 45 31 45 6 0 6 -7 -1 -19z m-1685 -15 c22 -8 44 -21 49
-29 14 -22 -1 -47 -28 -47 -13 0 -26 -6 -29 -12 -2 -7 -7 -10 -11 -7 -9 9 -34
109 -27 109 3 0 24 -7 46 -14z m95 -53 c0 -13 -4 -23 -9 -23 -10 0 -21 35 -21
65 1 20 1 20 15 1 8 -11 15 -30 15 -43z m1432 35 c-7 -7 -12 -8 -12 -2 0 14
12 26 19 19 2 -3 -1 -11 -7 -17z m-1848 -33 c41 -13 50 -52 11 -52 -14 0 -32
-9 -40 -19 -18 -25 -21 -20 -29 50 -6 54 -5 58 10 45 9 -8 31 -18 48 -24z
m206 -14 c0 -11 -3 -11 -15 -1 -8 7 -15 22 -15 33 0 20 0 20 15 1 8 -10 15
-25 15 -33z m300 29 c0 -11 -4 -20 -10 -20 -5 0 -10 9 -10 20 0 11 5 20 10 20
6 0 10 -9 10 -20z m-432 -46 c-6 -31 -23 -18 -26 21 -3 39 -3 40 13 17 9 -12
15 -29 13 -38z m1552 48 c0 -13 -12 -22 -22 -16 -10 6 -1 24 13 24 5 0 9 -4 9
-8z m-2034 -11 c15 -15 50 -17 65 -4 15 12 17 6 22 -62 2 -27 -1 -30 -24 -27
-19 2 -32 -5 -50 -27 -25 -32 -46 -32 -28 0 7 14 7 35 0 70 -6 28 -11 52 -11
54 0 8 16 5 26 -4z m224 -46 c0 -17 -50 -7 -57 11 -3 8 1 21 8 30 12 14 15 14
31 -6 10 -12 18 -28 18 -35z m350 23 c0 -5 -4 -8 -10 -8 -5 0 -10 10 -10 23 0
18 2 19 10 7 5 -8 10 -18 10 -22z m1157 1 c-8 -21 -13 -26 -15 -14 -5 21 5 45
17 45 5 0 4 -13 -2 -31z m108 2 c-9 -16 -25 -3 -18 15 4 10 9 12 15 6 6 -6 7
-15 3 -21z m36 -14 c-8 -8 -11 -5 -11 9 0 27 14 41 18 19 2 -9 -1 -22 -7 -28z
m110 10 c-8 -8 -11 -7 -11 4 0 20 13 34 18 19 3 -7 -1 -17 -7 -23z m-1130 -10
c-8 -8 -11 -7 -11 4 0 20 13 34 18 19 3 -7 -1 -17 -7 -23z m723 18 c-4 -8 -10
-12 -15 -9 -11 6 -2 24 11 24 5 0 7 -7 4 -15z m-1444 -52 c0 -13 -4 -23 -8
-23 -11 0 -32 67 -24 75 10 10 32 -26 32 -52z m2060 53 c0 -1 -11 -15 -26 -31
-14 -15 -22 -30 -19 -33 3 -3 17 7 30 22 28 33 31 20 11 -38 -14 -41 -36 -62
-47 -44 -4 6 -16 4 -35 -8 -21 -13 -26 -14 -17 -3 7 9 9 20 3 29 -7 11 -14 3
-30 -32 -23 -52 -40 -69 -40 -40 0 10 13 37 28 58 43 59 142 143 142 120z
m-1920 -41 c0 -38 -17 -38 -22 -1 -3 24 0 32 9 29 7 -3 13 -16 13 -28z m50 8
c0 -22 -2 -25 -10 -13 -13 20 -13 40 0 40 6 0 10 -12 10 -27z m2430 17 c0 -5
-4 -10 -10 -10 -5 0 -10 5 -10 10 0 6 5 10 10 10 6 0 10 -4 10 -10z m-3114
-15 c4 -10 13 -13 24 -10 10 3 21 1 25 -5 3 -6 10 -8 15 -5 11 7 26 -43 16
-52 -11 -11 -46 -10 -46 1 0 6 -6 0 -13 -13 -22 -43 -37 -37 -37 14 0 25 -5
55 -10 66 -9 15 -7 19 5 19 9 0 18 -7 21 -15z m124 -52 c0 -13 -4 -23 -10 -23
-5 0 -10 4 -10 9 0 5 -3 24 -6 42 -5 32 -5 33 10 15 9 -11 16 -30 16 -43z
m100 16 c0 -11 -4 -17 -10 -14 -5 3 -10 15 -10 26 0 11 5 17 10 14 6 -3 10
-15 10 -26z m50 -10 c0 -16 -4 -29 -10 -29 -5 0 -10 6 -10 13 0 6 -3 22 -6 35
-5 18 -3 21 10 16 10 -4 16 -18 16 -35z m2380 10 c0 -6 -5 -20 -11 -31 -9 -17
-9 -20 4 -15 21 8 27 -33 11 -72 -14 -34 -29 -40 -38 -15 -6 15 -10 14 -33 -7
-25 -23 -25 -23 -12 -1 8 12 17 22 20 22 4 0 9 9 12 20 6 22 -8 37 -18 20 -6
-10 -45 -34 -45 -27 0 2 18 22 40 45 22 22 40 48 40 56 0 9 7 16 15 16 8 0 15
-5 15 -11z m-1550 -25 c0 -27 -17 -32 -27 -8 -4 12 -7 13 -14 3 -10 -17 -21
-7 -14 12 3 8 16 15 30 15 20 2 25 -3 25 -22z m-194 -20 c-3 -8 -10 -12 -16
-9 -7 4 -6 14 2 28 12 24 24 8 14 -19z m54 22 c0 -8 -4 -18 -10 -21 -5 -3 -10
3 -10 14 0 12 5 21 10 21 6 0 10 -6 10 -14z m2006 -13 c-10 -10 -19 5 -10 18
6 11 8 11 12 0 2 -7 1 -15 -2 -18z m-214 -30 c-10 -28 -10 -28 -11 12 -1 28 2
36 10 28 8 -8 8 -19 1 -40z m-2006 0 c-5 -12 -10 -13 -18 -5 -8 8 -8 15 3 28
15 18 25 4 15 -23z m-176 2 c0 -8 -7 -15 -15 -15 -16 0 -20 12 -8 23 11 12 23
8 23 -8z m50 1 c0 -8 -4 -17 -9 -21 -12 -7 -24 12 -16 25 9 15 25 12 25 -4z
m83 -1 c-3 -9 -8 -14 -10 -11 -3 3 -2 9 2 15 9 16 15 13 8 -4z m-303 -26 c0
-22 -25 -26 -33 -5 -6 16 12 38 25 30 4 -3 8 -14 8 -25z m-154 -26 c-11 -11
-19 6 -11 24 8 17 8 17 12 0 3 -10 2 -21 -1 -24z m95 10 c-8 -15 -10 -15 -11
-2 0 17 10 32 18 25 2 -3 -1 -13 -7 -23z m99 6 c0 -5 -4 -9 -10 -9 -5 0 -10 7
-10 16 0 8 5 12 10 9 6 -3 10 -10 10 -16z m-1530 -10 c0 -5 -7 -9 -15 -9 -15
0 -20 12 -9 23 8 8 24 -1 24 -14z m1123 -15 c-4 -12 -63 -16 -63 -4 0 3 12 12
28 21 28 16 45 8 35 -17z m168 13 c-13 -13 -26 -3 -16 12 3 6 11 8 17 5 6 -4
6 -10 -1 -17z m2480 -40 c-8 -8 -11 -4 -11 14 0 33 14 47 18 19 2 -12 -1 -27
-7 -33z m-1776 23 c-11 -12 -27 -20 -37 -18 -30 5 -26 22 7 29 48 10 49 10 30
-11z m-1015 -10 c0 -11 -4 -20 -10 -20 -5 0 -10 9 -10 20 0 11 5 20 10 20 6 0
10 -9 10 -20z m-577 -170 c4 -104 3 -167 -3 -155 -8 19 -14 343 -6 334 2 -2 6
-83 9 -179z m4287 120 c0 -5 -4 -10 -9 -10 -6 0 -13 5 -16 10 -3 6 1 10 9 10
9 0 16 -4 16 -10z m-1220 -124 c-13 -39 -12 -39 -34 -30 -13 5 -11 11 11 40
31 41 39 38 23 -10z m-385 -16 c3 -5 1 -10 -4 -10 -6 0 -11 5 -11 10 0 6 2 10
4 10 3 0 8 -4 11 -10z m1800 -157 c-10 -54 -14 -57 -41 -32 l-24 22 23 23 c35
35 50 31 42 -13z m153 -84 c3 -23 -1 -27 -33 -33 -43 -8 -50 -5 -63 34 l-11
30 52 -3 c48 -2 52 -4 55 -28z m-1738 -213 c0 -3 -4 -8 -10 -11 -5 -3 -10 -1
-10 4 0 6 5 11 10 11 6 0 10 -2 10 -4z m2255 -136 c-3 -5 -17 -10 -31 -10 -14
0 -22 4 -19 10 3 6 17 10 31 10 14 0 22 -4 19 -10z m-5080 -281 c-4 -25 -3
-45 5 -54 9 -11 8 -19 -3 -35 -13 -18 -15 -19 -21 -5 -3 9 -3 27 0 41 4 14 2
24 -5 24 -15 0 -14 67 2 73 22 8 28 -5 22 -44z m360 41 c3 -6 -1 -7 -9 -4 -18
7 -21 14 -7 14 6 0 13 -4 16 -10z m-465 -22 c0 -7 -4 -19 -9 -27 -6 -9 -8 -5
-8 13 0 14 3 26 8 26 5 0 9 -6 9 -12z m40 -3 c0 -8 -2 -15 -4 -15 -2 0 -6 7
-10 15 -3 8 -1 15 4 15 6 0 10 -7 10 -15z m-205 -25 c3 -6 3 -19 0 -30 -8 -25
-45 -27 -40 -2 2 9 4 23 4 30 1 14 27 16 36 2z m1455 -19 c0 -6 -4 -13 -10
-16 -5 -3 -10 1 -10 9 0 9 5 16 10 16 6 0 10 -4 10 -9z m-1650 -27 c0 -8 -4
-14 -10 -14 -5 0 -10 9 -10 21 0 11 5 17 10 14 6 -3 10 -13 10 -21z m371 -59
c6 -87 -14 -119 -25 -40 -8 48 1 93 14 79 5 -5 9 -22 11 -39z m38 -7 c0 -27
-2 -29 -8 -13 -5 11 -6 26 -4 33 8 21 13 13 12 -20z m-222 -68 c1 -47 -1 -96
-4 -110 -4 -23 -6 -22 -19 15 -17 49 -29 148 -20 170 3 9 14 15 23 13 15 -3
18 -16 20 -88z m-197 40 c0 -5 -2 -10 -4 -10 -3 0 -8 5 -11 10 -3 6 -1 10 4
10 6 0 11 -4 11 -10z m84 -5 c3 -8 -1 -31 -8 -52 l-14 -38 -6 30 c-14 58 -14
64 -2 69 19 8 24 6 30 -9z m-179 -54 c3 -5 1 -12 -5 -16 -5 -3 -10 1 -10 9 0
18 6 21 15 7z m1274 -10 c7 -13 26 -20 69 -24 32 -4 65 -9 73 -12 17 -6 69
-117 69 -146 0 -24 -20 -25 -21 -1 0 10 -3 12 -6 4 -2 -6 4 -31 15 -55 11 -23
26 -60 32 -82 7 -22 28 -55 46 -74 18 -18 35 -49 38 -67 9 -47 5 -164 -5 -158
-9 5 -13 -14 -9 -54 1 -13 -3 -28 -8 -35 -14 -18 -23 -95 -12 -102 11 -7 4
-81 -13 -140 -32 -112 -127 -202 -233 -221 -15 -3 -41 -15 -58 -28 -125 -94
-256 -99 -362 -15 -21 16 -66 43 -101 60 -70 33 -99 65 -139 154 -20 44 -27
73 -26 115 1 51 -15 120 -28 120 -3 0 -5 -18 -3 -40 l2 -41 -44 48 c-24 26
-47 61 -51 77 -4 17 -15 42 -26 56 -10 14 -21 44 -24 65 l-5 40 23 -30 c12
-16 34 -41 48 -55 14 -14 32 -38 40 -55 14 -29 15 -24 20 90 5 117 6 120 27
119 19 -1 25 6 34 39 6 22 11 63 12 91 2 46 4 51 25 52 36 2 48 19 34 48 -9
20 -7 32 9 62 10 21 19 46 19 56 0 23 55 63 105 77 22 6 66 11 98 11 34 0 81
9 115 21 31 12 69 24 85 26 15 3 27 9 27 14 0 5 22 9 50 9 38 0 52 -4 59 -19z
m-929 -17 c0 -14 -4 -23 -10 -19 -5 3 -10 15 -10 26 0 10 5 19 10 19 6 0 10
-12 10 -26z m-160 -46 c-1 -2 -7 -25 -15 -53 -14 -50 -14 -50 -14 -13 -1 41 7
68 20 68 5 0 9 -1 9 -2z m240 -8 c0 -5 -4 -10 -10 -10 -5 0 -10 5 -10 10 0 6
5 10 10 10 6 0 10 -4 10 -10z m-166 -15 c-4 -8 -8 -15 -10 -15 -2 0 -4 7 -4
15 0 8 4 15 10 15 5 0 7 -7 4 -15z m1600 -16 c-5 -9 1 -10 20 -5 14 3 26 2 26
-3 0 -5 -16 -11 -35 -13 -44 -5 -49 20 -7 31 2 1 0 -4 -4 -10z m-1425 -42 c0
-21 -1 -21 -9 -2 -12 28 -12 37 0 30 6 -3 10 -16 9 -28z m-260 -109 c0 -28 -2
-30 -9 -13 -12 28 -12 45 0 45 6 0 10 -15 9 -32z m21 -95 c0 -10 -5 -25 -10
-33 -7 -11 -10 -7 -10 18 0 17 5 32 10 32 6 0 10 -8 10 -17z m1605 -203 c-11
-67 -71 -173 -129 -227 -31 -29 -59 -53 -62 -53 -4 0 -4 15 0 33 4 17 9 57 13
87 9 88 46 140 100 140 13 0 23 6 23 13 0 8 7 29 17 47 15 31 17 32 30 14 9
-12 12 -31 8 -54z m-195 -421 c0 -11 -4 -17 -10 -14 -5 3 -10 13 -10 21 0 8 5
14 10 14 6 0 10 -9 10 -21z m-990 -38 c0 -5 14 -33 32 -61 l32 -52 -22 -18
c-22 -18 -138 -44 -153 -34 -5 3 -9 1 -9 -5 0 -5 5 -13 10 -16 19 -12 11 -38
-10 -32 -27 7 -32 -4 -15 -37 15 -29 11 -51 -7 -40 -7 4 -8 -7 -3 -34 10 -60
-29 -128 -59 -103 -10 9 -17 1 -30 -34 -17 -44 -29 -54 -41 -35 -3 5 -16 -2
-29 -17 -15 -17 -29 -24 -40 -20 -30 12 -29 36 3 72 17 20 33 45 35 58 2 12
10 55 17 96 9 50 18 77 31 84 10 7 18 19 18 28 0 18 39 60 90 99 19 14 54 44
79 67 44 41 71 54 71 34z m927 -99 c-5 -43 -25 -109 -52 -177 -15 -37 31 27
59 83 27 54 42 69 31 30 -23 -78 -139 -268 -202 -333 -91 -94 -221 -202 -347
-290 l-70 -48 -23 29 c-57 71 -78 181 -53 283 14 57 24 68 46 50 13 -10 17
-10 25 2 9 14 2 76 -11 94 -15 21 -28 75 -20 80 5 3 52 7 105 9 86 4 103 8
169 40 40 20 78 36 86 36 33 0 160 73 201 115 24 25 48 45 53 45 5 0 6 -22 3
-48z m-1331 -1269 l61 -26 11 -122 c7 -72 22 -158 38 -211 41 -136 41 -134 -5
-177 -41 -38 -131 -160 -131 -177 0 -5 -8 -14 -18 -19 -10 -5 -18 -20 -19 -33
-5 -56 -12 -67 -43 -63 -33 4 -90 40 -90 57 0 5 -7 7 -15 4 -21 -8 -98 41 -88
57 4 6 6 25 5 41 -4 49 16 94 49 108 37 16 46 46 25 87 -13 24 -14 36 -6 51 6
11 14 20 18 20 17 0 76 200 96 325 11 62 26 105 39 105 7 0 40 -12 73 -27z
m14 -1046 c50 -18 118 -58 124 -73 3 -9 -9 -17 -36 -24 -51 -14 -78 -31 -78
-48 0 -7 -5 -10 -11 -6 -7 4 -28 8 -47 10 -41 4 -112 48 -112 69 0 9 14 17 39
21 39 6 81 35 81 54 0 12 -2 12 40 -3z m-297 -173 c21 -14 35 -29 32 -33 -2
-5 -36 -18 -74 -31 -78 -25 -121 -22 -158 9 -33 27 -29 37 20 50 23 6 49 15
57 21 28 18 84 11 123 -16z"/>
<path d="M1768 3503 c-27 -7 -22 -18 15 -31 44 -16 47 -15 47 8 0 11 -4 20 -9
20 -5 0 -15 2 -23 4 -7 2 -21 2 -30 -1z"/>
<path d="M1115 3479 c-4 -5 -19 -7 -34 -4 -30 6 -81 -25 -81 -51 0 -19 12 -18
52 5 18 11 52 25 75 32 23 6 40 16 37 20 -7 13 -42 11 -49 -2z"/>
<path d="M1615 3422 c-30 -6 -43 -22 -17 -22 13 0 22 -6 22 -15 0 -9 9 -15 25
-15 14 0 25 5 25 10 0 6 7 10 15 10 8 0 15 -4 15 -10 0 -5 15 -10 32 -10 l33
0 -28 28 c-27 26 -68 35 -122 24z"/>
<path d="M1180 3401 c-56 -11 -114 -51 -93 -64 15 -9 63 5 63 19 0 8 5 14 11
14 6 0 8 -8 4 -19 -5 -18 -3 -19 24 -11 34 9 74 46 66 60 -7 11 -23 11 -75 1z"/>
<path d="M1614 2991 c-15 -5 -19 -12 -15 -29 l6 -24 19 20 c22 25 18 40 -10
33z"/>
<path d="M1245 2983 c-36 -9 -37 -20 -5 -47 33 -27 64 -26 36 2 -14 14 -14 17
1 34 17 19 11 21 -32 11z"/>
<path d="M1561 2936 c-10 -12 -8 -13 8 -9 12 3 18 9 15 14 -7 12 -10 11 -23
-5z"/>
<path d="M4354 6098 c3 -13 6 -67 6 -121 0 -63 4 -96 10 -92 20 12 8 235 -13
235 -5 0 -7 -10 -3 -22z"/>
<path d="M6090 6116 c0 -2 7 -9 15 -16 12 -10 15 -10 15 4 0 9 -7 16 -15 16
-8 0 -15 -2 -15 -4z"/>
<path d="M4373 5790 c0 -47 2 -66 4 -42 2 23 2 61 0 85 -2 23 -4 4 -4 -43z"/>
<path d="M4375 5690 c3 -5 8 -10 11 -10 2 0 4 5 4 10 0 6 -5 10 -11 10 -5 0
-7 -4 -4 -10z"/>
<path d="M0 5480 l0 -105 36 -11 c35 -11 36 -11 49 20 13 31 14 31 89 31 46 0
75 4 73 10 -1 6 -20 11 -42 11 -22 1 -59 2 -81 3 -39 1 -43 4 -58 41 -9 22
-21 40 -26 40 -6 0 -17 15 -25 33 -13 30 -14 26 -15 -73z"/>
<path d="M371 5523 c7 -12 15 -20 18 -17 3 2 -3 12 -13 22 -17 16 -18 16 -5
-5z"/>
<path d="M630 5428 c0 -9 5 -20 11 -23 17 -11 20 0 4 21 -13 17 -14 17 -15 2z"/>
<path d="M290 5420 c0 -5 4 -20 10 -34 11 -30 31 -35 23 -7 -3 13 1 20 12 23
12 2 8 7 -14 15 -17 6 -31 7 -31 3z"/>
<path d="M392 5388 c3 -7 15 -15 27 -16 16 -3 22 1 19 10 -3 7 -15 15 -27 16
-16 3 -22 -1 -19 -10z"/>
<path d="M1333 5371 c-17 -27 -16 -31 3 -31 9 0 14 -7 12 -17 -2 -10 -11 -18
-20 -18 -9 0 -20 -4 -24 -8 -4 -4 2 -7 14 -7 12 0 22 -5 22 -12 0 -9 3 -9 11
-1 9 9 9 27 3 63 -8 46 -10 49 -21 31z"/>
<path d="M200 5311 c0 -5 5 -13 10 -16 6 -3 10 -2 10 4 0 5 -4 13 -10 16 -5 3
-10 2 -10 -4z"/>
<path d="M0 5290 c0 -5 5 -10 10 -10 6 0 10 5 10 10 0 6 -4 10 -10 10 -5 0
-10 -4 -10 -10z"/>
<path d="M560 5226 c0 -3 11 -17 25 -32 22 -24 25 -25 25 -7 0 22 -18 43 -37
43 -7 0 -13 -2 -13 -4z"/>
<path d="M2706 5175 c-8 -8 -22 -15 -30 -15 -9 0 -16 -5 -16 -11 0 -5 -5 -7
-10 -4 -13 8 -77 -56 -112 -111 -42 -66 -89 -165 -86 -181 2 -8 15 9 30 39 20
38 28 46 28 31 0 -13 3 -23 8 -23 8 1 82 102 102 140 15 28 48 67 100 116 25
25 30 34 18 34 -9 0 -23 -7 -32 -15z"/>
<path d="M630 5160 c-8 -5 -12 -12 -9 -15 8 -8 39 5 39 16 0 11 -11 11 -30 -1z"/>
<path d="M577 5154 c-2 -5 -5 -21 -5 -36 0 -21 5 -28 19 -28 23 0 23 -1 5 40
-7 18 -16 29 -19 24z"/>
<path d="M675 5100 c-3 -5 -1 -10 4 -10 6 0 11 5 11 10 0 6 -2 10 -4 10 -3 0
-8 -4 -11 -10z"/>
<path d="M660 5070 c0 -17 17 -47 23 -40 2 3 -2 16 -10 30 -7 14 -13 18 -13
10z"/>
<path d="M2683 5035 c-56 -50 -64 -65 -35 -65 25 0 95 74 90 95 -2 14 -13 8
-55 -30z"/>
<path d="M4209 5054 c-12 -14 -11 -16 5 -13 11 2 21 10 24 17 5 17 -13 15 -29
-4z"/>
<path d="M2685 4958 c-10 -6 -30 -25 -45 -42 -14 -16 -36 -40 -50 -53 -13 -12
-22 -25 -19 -28 3 -3 39 26 80 65 69 66 80 84 34 58z"/>
<path d="M2535 4779 c-4 -6 -5 -12 -2 -15 2 -3 7 2 10 11 7 17 1 20 -8 4z"/>
<path d="M2115 4750 c3 -5 8 -10 11 -10 2 0 4 5 4 10 0 6 -5 10 -11 10 -5 0
-7 -4 -4 -10z"/>
<path d="M2134 4663 c-3 -10 -10 -26 -15 -35 -12 -24 -13 -24 19 -23 20 0 27
-5 27 -20 0 -15 -7 -20 -27 -20 -23 1 -28 -4 -28 -22 0 -15 -8 -27 -23 -32
-30 -12 -51 -37 -37 -46 18 -11 12 -45 -9 -45 -26 0 -33 -24 -17 -55 13 -25
14 -25 19 -4 4 15 11 19 25 14 26 -7 41 14 18 27 -19 11 -20 37 -2 61 18 24
40 18 47 -13 5 -20 7 -16 8 17 1 48 9 73 23 73 5 0 8 -28 6 -62 -3 -53 -6 -63
-20 -62 -11 1 -18 -5 -18 -17 0 -10 -7 -19 -15 -19 -8 0 -15 -4 -15 -8 0 -5
-12 -14 -26 -21 -19 -8 -25 -17 -21 -31 3 -10 -2 -28 -10 -40 -22 -32 -8 -80
24 -80 25 0 53 20 53 39 0 6 5 11 10 11 6 0 10 10 9 23 0 12 -3 16 -6 10 -2
-7 -12 -13 -20 -13 -9 0 -13 -6 -10 -15 4 -8 2 -17 -3 -20 -6 -4 -10 -1 -10 6
0 10 -3 10 -12 1 -16 -16 -28 -15 -28 2 0 7 9 16 20 19 20 5 28 27 10 27 -17
0 -11 29 9 39 14 8 20 7 25 -4 8 -21 26 -19 24 3 -3 44 3 61 25 64 21 3 22 7
25 132 3 129 -3 156 -35 156 -7 0 -16 -8 -19 -17z"/>
<path d="M2048 4613 c-11 -15 -11 -16 5 -10 21 8 23 -15 2 -33 -8 -7 -14 -24
-14 -39 1 -19 3 -21 6 -7 3 10 14 33 24 50 23 37 23 42 5 49 -8 3 -20 -2 -28
-10z"/>
<path d="M2675 4395 c-22 -8 -41 -15 -42 -15 -2 0 -3 -11 -3 -24 0 -17 7 -25
25 -28 19 -4 25 -1 25 11 0 20 19 41 37 41 7 0 21 -10 33 -22 l20 -22 0 24 c0
17 3 21 11 13 11 -11 49 -6 49 7 0 23 -105 33 -155 15z"/>
<path d="M3205 4392 c-11 -2 -24 -9 -30 -14 -7 -7 -3 -8 11 -4 16 5 27 0 40
-16 20 -25 87 -39 82 -17 -2 6 3 14 10 16 6 3 12 -2 12 -11 0 -11 9 -16 30
-16 36 0 40 21 8 42 -23 15 -127 28 -163 20z m60 -21 c3 -5 1 -12 -5 -16 -5
-3 -10 1 -10 9 0 18 6 21 15 7z"/>
<path d="M4762 4291 c-18 -3 -33 -9 -32 -13 0 -5 0 -16 1 -25 0 -14 2 -13 9 5
11 25 40 30 40 6 0 -12 5 -14 18 -9 9 4 29 10 45 13 33 5 36 22 3 22 -13 0
-30 2 -38 4 -7 2 -28 1 -46 -3z"/>
<path d="M2120 4175 c0 -19 2 -35 4 -35 2 0 6 16 8 35 2 19 0 35 -4 35 -4 0
-8 -16 -8 -35z"/>
<path d="M4098 4205 c-2 -3 -3 -18 0 -35 3 -24 9 -30 28 -30 21 0 23 3 15 19
-11 20 -5 31 16 31 7 0 13 -10 13 -21 0 -18 2 -19 15 -9 23 19 18 28 -22 39
-42 12 -57 13 -65 6z"/>
<path d="M4013 4178 c-13 -6 -23 -15 -23 -20 0 -14 16 -9 41 12 26 21 17 25
-18 8z"/>
<path d="M3589 4020 c-2 -12 -2 -12 -18 -80 -8 -30 -20 -68 -28 -83 -8 -16
-13 -31 -10 -33 8 -8 55 112 62 159 3 26 4 47 1 47 -3 0 -7 -4 -7 -10z"/>
<path d="M2822 3855 c6 -13 17 -26 24 -29 10 -4 11 0 2 19 -6 13 -17 26 -24
29 -10 4 -11 0 -2 -19z"/>
<path d="M5330 3855 c0 -8 5 -15 10 -15 6 0 10 7 10 15 0 8 -4 15 -10 15 -5 0
-10 -7 -10 -15z"/>
<path d="M5336 3821 c-4 -5 -2 -20 3 -33 9 -21 10 -21 10 10 1 32 -3 39 -13
23z"/>
<path d="M5340 3719 c0 -5 5 -7 10 -4 6 3 10 8 10 11 0 2 -4 4 -10 4 -5 0 -10
-5 -10 -11z"/>
<path d="M5350 3684 c0 -8 5 -12 10 -9 6 4 8 11 5 16 -9 14 -15 11 -15 -7z"/>
<path d="M4855 3679 c-11 -17 1 -21 15 -4 8 9 8 15 2 15 -6 0 -14 -5 -17 -11z"/>
<path d="M4260 3566 c36 -13 50 -12 50 5 0 5 -19 9 -42 8 l-43 0 35 -13z"/>
<path d="M5020 3340 c0 -5 5 -10 11 -10 5 0 7 5 4 10 -3 6 -8 10 -11 10 -2 0
-4 -4 -4 -10z"/>
<path d="M5063 3273 c-13 -9 -23 -22 -23 -30 0 -9 9 -6 27 11 31 29 28 41 -4
19z"/>
<path d="M2881 3123 c-10 -26 -10 -27 4 -9 8 11 15 23 15 28 0 15 -7 8 -19
-19z"/>
<path d="M4500 2728 c0 -15 5 -30 10 -33 13 -8 13 25 0 45 -8 12 -10 9 -10
-12z"/>
<path d="M4500 1370 c-8 -5 -26 -10 -39 -10 -46 0 -111 -83 -191 -245 -65
-133 -74 -158 -78 -218 -6 -88 13 -161 40 -154 19 5 25 -7 8 -18 -5 -3 -6 -13
-3 -21 4 -11 9 -12 16 -5 19 19 28 12 22 -16 -3 -16 3 -5 13 22 26 70 109 270
128 308 11 21 12 28 3 20 -21 -21 -32 -15 -24 15 12 48 58 85 49 40 -3 -13 3
-5 12 17 10 22 23 45 30 50 12 10 21 46 31 123 4 34 2 42 -11 42 -23 0 -20 19
7 41 23 19 13 26 -13 9z m-130 -435 c0 -8 -4 -15 -10 -15 -5 0 -10 7 -10 15 0
8 5 15 10 15 6 0 10 -7 10 -15z"/>
<path d="M3251 1147 c2 -3 15 -10 28 -17 19 -9 22 -9 19 1 -2 7 -15 14 -28 16
-13 2 -22 2 -19 0z"/>
<path d="M3320 1120 c0 -5 10 -10 23 -10 18 0 19 2 7 10 -19 13 -30 13 -30 0z"/>
<path d="M3880 841 c0 -6 4 -13 10 -16 6 -3 7 1 4 9 -7 18 -14 21 -14 7z"/>
<path d="M4536 785 c-4 -22 -17 -77 -30 -122 -13 -46 -19 -83 -14 -83 5 0 10
6 12 13 2 6 16 51 30 99 19 61 24 93 17 110 -8 21 -9 19 -15 -17z"/>
<path d="M3910 783 c0 -6 9 -22 20 -36 11 -14 20 -28 20 -33 0 -4 11 -30 24
-58 78 -163 106 -230 106 -257 0 -16 4 -37 9 -47 5 -9 14 -48 20 -87 5 -38 13
-86 17 -105 7 -32 6 -34 -10 -21 -9 8 -19 12 -21 9 -3 -2 1 -36 8 -74 l12 -69
74 -3 c52 -2 77 1 83 10 8 10 11 10 15 1 2 -7 9 -13 13 -13 16 0 62 52 70 79
4 14 24 78 43 141 51 164 81 297 72 317 -6 16 -8 15 -15 -7 -16 -51 -40 -166
-40 -192 0 -15 -4 -29 -9 -33 -5 -3 -17 -30 -25 -60 -18 -60 -58 -155 -66
-154 -12 1 -80 119 -80 137 0 12 -4 23 -10 27 -9 5 -5 250 5 288 3 9 8 26 11
37 4 14 1 20 -10 20 -9 0 -16 -9 -16 -20 0 -11 -4 -20 -10 -20 -5 0 -14 9 -20
20 -13 25 -52 26 -76 3 -9 -10 -24 -33 -32 -53 l-15 -35 -44 93 c-24 51 -59
116 -79 145 -42 61 -44 63 -44 50z m239 -695 c6 -18 7 -28 2 -23 -10 12 -25
55 -18 55 3 0 10 -15 16 -32z"/>
<path d="M0 558 l0 -113 41 -3 c46 -3 150 24 161 41 11 19 -12 37 -48 37 -18
0 -36 5 -40 11 -3 6 -17 8 -30 5 -13 -4 -24 -2 -24 3 0 5 11 12 25 15 36 9 31
30 -17 69 -72 57 -68 60 -68 -65z"/>
<path d="M4261 634 c0 -11 3 -14 6 -6 3 7 2 16 -1 19 -3 4 -6 -2 -5 -13z"/>
<path d="M1016 294 c-11 -11 -20 -13 -29 -6 -10 8 -79 9 -97 1 -3 -1 -12 -3
-20 -3 -8 -1 -14 -8 -12 -16 6 -29 47 -81 67 -85 20 -4 98 -14 123 -14 8 -1
10 -9 6 -26 -7 -28 7 -37 60 -40 17 -1 40 -5 51 -9 11 -4 36 -14 55 -21 19 -8
27 -14 18 -14 -19 -1 -25 -21 -7 -21 26 0 89 24 90 34 3 49 1 117 -4 147 -7
34 -30 56 -67 63 -8 2 -26 6 -40 9 -14 3 -59 8 -101 12 -63 5 -80 3 -93 -11z"/>
<path d="M4081 223 c-1 -53 13 -79 22 -42 3 11 -1 37 -8 57 l-14 37 0 -52z"/>
<path d="M553 220 c-30 -12 -29 -24 2 -38 14 -6 25 -18 25 -25 0 -8 11 -31 25
-51 22 -33 23 -36 6 -36 -24 0 -65 -33 -60 -47 3 -7 23 -2 56 14 l53 26 40
-19 c22 -10 40 -25 40 -31 0 -9 16 -13 45 -13 33 0 45 4 45 15 0 8 -5 15 -11
15 -6 0 -9 10 -8 23 5 35 -17 63 -65 86 -30 15 -50 33 -61 56 -15 33 -19 35
-63 34 -26 0 -57 -4 -69 -9z"/>
<path d="M1944 42 c-7 -24 -8 -42 -3 -42 14 0 21 24 17 57 -3 26 -4 25 -14
-15z"/>
<path d="M873 20 c-31 -13 -29 -20 7 -20 20 0 30 5 30 15 0 17 -5 18 -37 5z"/>
</g>
</svg>
